<svg preserveAspectRatio="none" width="15" height="15" viewBox="0 0 15 15" fill="none" xmlns="http://www.w3.org/2000/svg">
<g id="Icon">
<path id="Vector" d="M12.1773 5.20618C12.1125 5.14085 12.0354 5.089 11.9505 5.05361C11.8655 5.01822 11.7744 5 11.6824 5C11.5904 5 11.4993 5.01822 11.4143 5.05361C11.3294 5.089 11.2523 5.14085 11.1875 5.20618L7.99502 8.39864C7.93023 8.46397 7.85313 8.51583 7.76819 8.55122C7.68325 8.58661 7.59214 8.60483 7.50012 8.60483C7.40811 8.60483 7.317 8.58661 7.23206 8.55122C7.14711 8.51583 7.07002 8.46397 7.00522 8.39864L3.81276 5.20618C3.74796 5.14085 3.67087 5.089 3.58592 5.05361C3.50098 5.01822 3.40987 5 3.31786 5C3.22584 5 3.13473 5.01822 3.04979 5.05361C2.96485 5.089 2.88775 5.14085 2.82296 5.20618C2.69313 5.33678 2.62026 5.51345 2.62026 5.6976C2.62026 5.88175 2.69313 6.05841 2.82296 6.18901L6.02239 9.38844C6.41448 9.78004 6.94597 10 7.50012 10C8.05428 10 8.58577 9.78004 8.97786 9.38844L12.1773 6.18901C12.3071 6.05841 12.38 5.88175 12.38 5.6976C12.38 5.51345 12.3071 5.33678 12.1773 5.20618V5.20618Z" fill="#19191C"/>
</g>
</svg>
