<svg width="41" height="41" viewBox="0 0 41 41" fill="none" xmlns="http://www.w3.org/2000/svg">
<g id="Icon">
<g id="Name=Gmail, Color=Default">
<path id="Vector" d="M37.2466 35.0032H3.75931C2.43898 35.0032 1.36743 33.932 1.36743 32.6121V8.70095C1.36743 7.38105 2.43898 6.30981 3.75931 6.30981H37.2466C38.5669 6.30981 39.6386 7.38105 39.6386 8.70095V32.6121C39.6386 33.932 38.5669 35.0032 37.2466 35.0032Z" fill="#EAEAEA"/>
<path id="Vector_2" d="M6.1513 35.0032H3.75931C2.43898 35.0032 1.36743 33.932 1.36743 32.6121V8.70095C1.36743 7.38105 2.43898 6.30981 3.75931 6.30981C5.07975 6.30981 6.1513 7.38105 6.1513 8.70095V35.0032Z" fill="#D54C3F"/>
<path id="Vector_3" d="M34.8546 35.0032H37.2466C38.5669 35.0032 39.6386 33.932 39.6386 32.6121V8.70095C39.6386 7.38105 38.5669 6.30981 37.2466 6.30981C35.9263 6.30981 34.8546 7.38105 34.8546 8.70095V35.0032Z" fill="#B63524"/>
<path id="Vector_4" d="M38.6163 10.6616C39.6991 9.90606 39.9638 8.41394 39.2079 7.3316C38.4521 6.24916 36.9596 5.98458 35.8768 6.7402L20.5046 17.9274H20.5014L5.12914 6.7402C4.04638 5.98458 2.55533 6.24916 1.79789 7.3316C1.04046 8.41394 1.30675 9.90606 2.38951 10.6616L2.32577 10.6153L20.503 23.8447L38.6163 10.6616Z" fill="#DE5145"/>
<path id="Vector_5" d="M37.2466 6.30981C36.7379 6.30981 36.2643 6.46922 35.8768 6.74021L20.5046 17.9274H20.5014L5.12915 6.74021C4.72886 6.45961 4.25042 6.30981 3.75928 6.30981H37.2466Z" fill="#EFEFEF"/>
<path id="Vector_6" d="M6.15284 14.43L2.1216 10.4384L2.12 10.4416C2.20456 10.5213 2.29382 10.5946 2.38948 10.6615L2.32574 10.6153L6.15284 13.4002V14.4587V14.43Z" fill="#C64132"/>
<path id="Vector_7" d="M17.8463 25.9106L6.15125 35.0032L6.15285 14.3312L17.8447 25.9074L17.8463 25.9106Z" fill="#E3E3E3"/>
<g id="Clip path group">
<mask id="mask0_88_2136" style="mask-type:luminance" maskUnits="userSpaceOnUse" x="6" y="13" width="15" height="13">
<g id="7be99eb9e2">
<path id="Vector_8" d="M6.15002 13.3933H20.5274V25.912H6.15002V13.3933Z" fill="white"/>
</g>
</mask>
<g mask="url(#mask0_88_2136)">
<g id="Group">
<g id="Clip path group_2">
<mask id="mask1_88_2136" style="mask-type:luminance" maskUnits="userSpaceOnUse" x="6" y="13" width="15" height="13">
<g id="bff79f4124">
<path id="Vector_9" d="M17.8463 25.9105L20.5029 23.8446L6.15283 13.4001V14.3295L17.8447 25.9057L17.8463 25.9105Z" fill="white"/>
</g>
</mask>
<g mask="url(#mask1_88_2136)">
<g id="Group_2">
<path id="Vector_10" d="M6.15283 25.9105V13.4001H20.5029V25.9105H6.15283Z" fill="url(#paint0_linear_88_2136)"/>
</g>
</g>
</g>
</g>
</g>
</g>
<g id="Clip path group_3">
<mask id="mask2_88_2136" style="mask-type:luminance" maskUnits="userSpaceOnUse" x="17" y="13" width="18" height="23">
<g id="67444dffb0">
<path id="Vector_11" d="M17.8213 13.3934H34.8773V35.0141H17.8213V13.3934Z" fill="white"/>
</g>
</mask>
<g mask="url(#mask2_88_2136)">
<g id="Group_3">
<g id="Clip path group_4">
<mask id="mask3_88_2136" style="mask-type:luminance" maskUnits="userSpaceOnUse" x="17" y="13" width="18" height="23">
<g id="6ffb84e9a6">
<path id="Vector_12" d="M26.9291 35.0031H34.8544V13.4001L20.5028 23.8446L17.8445 25.9057L26.9291 35.0031Z" fill="white"/>
</g>
</mask>
<g mask="url(#mask3_88_2136)">
<g id="Group_4">
<path id="Vector_13" d="M17.8445 35.0031V13.4001H34.8544V35.0031H17.8445Z" fill="url(#paint1_linear_88_2136)"/>
</g>
</g>
</g>
</g>
</g>
</g>
</g>
</g>
<defs>
<linearGradient id="paint0_linear_88_2136" x1="6.15281" y1="19.7464" x2="20.5029" y2="19.7464" gradientUnits="userSpaceOnUse">
<stop stop-color="#C8C8C8"/>
<stop offset="0.125" stop-color="#C8C8C8"/>
<stop offset="0.25" stop-color="#C9C9C9"/>
<stop offset="0.375" stop-color="#CACACA"/>
<stop offset="0.5" stop-color="#CACACA"/>
<stop offset="0.625" stop-color="#CBCBCB"/>
<stop offset="0.75" stop-color="#CBCBCB"/>
<stop offset="0.875" stop-color="#CCCCCC"/>
<stop offset="1" stop-color="#CDCDCD"/>
</linearGradient>
<linearGradient id="paint1_linear_88_2136" x1="17.8445" y1="24.2597" x2="34.8544" y2="24.2597" gradientUnits="userSpaceOnUse">
<stop stop-color="#D9D9D9"/>
<stop offset="0.0625" stop-color="#D9D9D9"/>
<stop offset="0.125" stop-color="#DADADA"/>
<stop offset="0.1875" stop-color="#DADADA"/>
<stop offset="0.25" stop-color="#DBDBDB"/>
<stop offset="0.3125" stop-color="#DBDBDB"/>
<stop offset="0.375" stop-color="#DCDCDC"/>
<stop offset="0.4375" stop-color="#DDDDDD"/>
<stop offset="0.5" stop-color="#DDDDDD"/>
<stop offset="0.5625" stop-color="#DEDEDE"/>
<stop offset="0.625" stop-color="#DEDEDE"/>
<stop offset="0.6875" stop-color="#DFDFDF"/>
<stop offset="0.75" stop-color="#DFDFDF"/>
<stop offset="0.8125" stop-color="#E0E0E0"/>
<stop offset="0.875" stop-color="#E1E1E1"/>
<stop offset="0.9375" stop-color="#E1E1E1"/>
<stop offset="1" stop-color="#E2E2E2"/>
</linearGradient>
</defs>
</svg>
